<svg id="Vrstva_1" data-name="Vrstva 1" xmlns="http://www.w3.org/2000/svg" viewBox="0 0 500 500"><defs><style>.cls-1{fill:#9b5d51;}.cls-2{fill:#f4929e;}.cls-3{fill:#ea572e;}</style></defs><path class="cls-1" d="M130.44,107.57l-7.31,14.7s45.22,32.58,41.67,54.11L178.38,173S161.56,136.07,130.44,107.57Z"/><path class="cls-2" d="M264.17,148.64s-51.32-30-92.49,19.77l-34.44,3.2s-35.51,12.11-47.86,54.13l66.34,16.42c4.68,10.3,13.81,49.82,13.81,49.82l31.08,46.8L186.07,399c20.33-6.6,84.79-24.19,84.79-24.19l75.41-52.86-66.66-34.6L264.19,248,243,215.54S263.5,150.05,264.17,148.64Z"/><path class="cls-3" d="M264.19,148.65c0,.08-.09.08-.09.25l-27.57,14.76-35.35,14.73-25.41,29.45s-30.05,5-36,4.59-40,11.4-40,11.4l-8.3,2.31-2.13-.43c12.4-42,47.9-54.14,47.9-54.14l34.38-3.17C212.87,118.62,264.19,148.65,264.19,148.65Z"/></svg>