<svg id="Vrstva_1" data-name="Vrstva 1" xmlns="http://www.w3.org/2000/svg" viewBox="0 0 500 500"><defs><style>.cls-1{fill:#ffc84d;}</style></defs><path class="cls-1" d="M60.93,411.09c-4.38,1.29-6,5-8.56,7.44-4.73,4.52-6.31,4.45-10.06-.88s-7.61-10.87-5.26-18.21a10,10,0,0,0-.21-5.12c-2.41-9.7-1.27-19.43-.35-29.15q1.47-15.45,3-30.9a12.06,12.06,0,0,1,.35-2.56c5.47-17.13,4.77-35.18,7.73-52.69,1.08-6.38,3.3-12.85.8-19.48-.36-1,.09-2.27.27-3.4q9-55.27,18.09-110.56c.09-.51.58-1,1.13-1.84,4-.57,5.58,1.73,6.72,5.5,2.92,9.62,6.19,19.13,9.41,28.65,2,6,6.38,10.15,11.63,13.37,5.59,3.42,8.28,2.78,10.91-3,3.8-8.36,7.58-16.75,10.77-25.35a442.83,442.83,0,0,1,27.84-61.16c3.26-5.87,8.9-10.41,13.4-15.6,3.36-3.88,6.88-7.66,9.88-11.8,4.33-6,6.67-6.13,13.6-2.75,19.82,9.68,26.16,26.8,27.25,47.18q.63,12,1.77,24c.2,2.18,1.19,4.28,1.82,6.39,5.52.47,7.36-3.2,8.2-6.66,2.35-9.71,7.87-17.77,12.52-26.33,4.25-7.82,7.7-16.07,11.86-23.94,4.56-8.63,9.74-16.94,14.25-25.6,2.91-5.58,5.13-11.52,7.62-17.31s3.44-6.43,9.63-6.14c.86,0,1.72.13,2.58.16,10.83.29,10.58.32,12.09,11.42,1.11,8.13.28,15.91-1.56,23.87-6.13,26.58-13.2,53-14.75,80.43-.1,1.72-.33,3.44-.45,5.16-.49,7.33,4.25,14.28,11,16.2,5.18,1.47,11.89-2.11,15.86-7.77,5.12-7.28,10.55-14.34,16-21.36a23.32,23.32,0,0,1,5.2-4.47c5-3.42,10-6.77,15.06-10a41.75,41.75,0,0,1,5.43-2.43c4.18,4.71,3.77,10,2.92,15-2.77,16.13-5.19,32.34-11.38,47.7a189.56,189.56,0,0,0-6.64,20.48c-.87,3.14-1.67,6.63.45,10.31,6.18-2.68,10.47-8.4,17.46-9.45,2.86,4.86,5.85,9.38,2.19,15-1.52,4.68-5.14,11.31-7.42,16.56-6.55,15-12.79,30.16-18.94,45.34-2.67,6.59-4.86,13.14-9.13,19.2C307,323,302.7,332.55,298,341.77c-11,21.8-21.88,43.69-32.8,65.54a25,25,0,0,1-1.17,2.31c-1.79,2.84-3,6.77-7.4,6-4.68-.83-10.11-.9-11.24-7.34-.15-.84-.64-1.63-.77-2.47-1.63-10.68-6.48-20.07-12.12-30.18-1.07,2-2.22,3.5-2.7,5.17-4.21,14.63-8.12,29.34-12.47,43.92-3.45,11.57-7.48,23-11.09,34.47-1.45,4.63-3.93,8.19-8.22,10.57-5.76,3.21-11.5,6.47-17.11,9.94-4.12,2.55-8,5.47-12.07,8.27-7.18-1.4-12.08-6.62-17.68-10.42-1.78-1.21-2.55-4.45-3-6.9-2.78-13.8-5.31-27.65-8-41.47-.51-2.69-1.18-5.35-2.13-9.56-10.25,10.54-21.21,18-28.86,28.85A43.32,43.32,0,0,1,86.76,465c-5.92,2-10,1.27-13.1-4.09a33.89,33.89,0,0,1-3.27-9.64c-2.71-12-5.19-24.09-7.83-36.13A26.81,26.81,0,0,0,60.93,411.09Z"/></svg>