<svg id="Vrstva_1" data-name="Vrstva 1" xmlns="http://www.w3.org/2000/svg" viewBox="0 0 500 500"><defs><style>.cls-1{fill:#28a397;}</style></defs><path class="cls-1" d="M309.39,305.54c8.89,27.28,19,53.4,21.24,81.61-17.55-20.65-35.11-41.29-53.39-62.79-11.88,25.6-21.43,51-33.4,75.3l-1.57-.25c-2.82-29.54-5.65-59.07-8.58-89.73-27.92,24.73-52.62,51.58-81.14,74.1l50.53-95.21c-23.51,2.74-45.87,5.14-68.38,4.69l89.14-48.57-40.69-69.26.53-.91a44.05,44.05,0,0,1,4.8,2.69q23.82,17.43,47.57,35c5.37,4,10.6,8.14,15.92,12.17,1.15.87,2.43,1.57,4.41,2.84,15.25-27.41,29.43-55.09,48.85-80.73.46,2.59.89,4.48,1.11,6.4,1.65,14.31.24,28.57-1,42.82-.92,10.91-2,21.81-3,32.73-.17,2,0,4,0,7,27-7.39,53.14-15.74,80.12-21.53-19.11,19.78-41.7,35.36-62.88,54.58,22.81,5.63,44.69,9.82,65.86,16.62v1.39Z"/></svg>