<svg id="Vrstva_1" data-name="Vrstva 1" xmlns="http://www.w3.org/2000/svg" viewBox="0 0 500 500"><defs><style>.cls-1{fill:#ffc84d;}</style></defs><path class="cls-1" d="M95.76,312.28c6,9.57,11.39,19.1,15.09,30L44.38,361.85C45.5,357.42,83.27,320.92,95.76,312.28Z"/><path class="cls-1" d="M212.16,349.1c6,9.58,11.4,19.11,15.09,30l-66.47,19.55C161.9,394.25,199.67,357.75,212.16,349.1Z"/><path class="cls-1" d="M199,281.54c6,9.58,11.39,19.11,15.08,30l-66.46,19.55C148.69,326.69,186.45,290.19,199,281.54Z"/><path class="cls-1" d="M176.13,204.1c6,9.58,11.39,19.11,15.08,30l-66.46,19.55C125.86,249.25,163.63,212.75,176.13,204.1Z"/><path class="cls-1" d="M324.1,343.61c6,9.58,11.39,19.11,15.08,30l-66.46,19.55C273.84,388.76,311.61,352.26,324.1,343.61Z"/><path class="cls-1" d="M426.55,343.76c6,9.58,11.4,19.11,15.09,30l-66.47,19.55C376.29,388.91,414.06,352.41,426.55,343.76Z"/><path class="cls-1" d="M410.86,273.27c6,9.58,11.39,19.11,15.08,30l-66.46,19.55C360.6,318.42,398.36,281.92,410.86,273.27Z"/><path class="cls-1" d="M280.86,203.64c6,9.57,11.39,19.11,15.08,30l-66.46,19.56C230.6,248.78,268.37,212.29,280.86,203.64Z"/><path class="cls-1" d="M302,271.75c6,9.58,11.4,19.11,15.09,30l-66.47,19.55C251.69,316.9,289.46,280.4,302,271.75Z"/><path class="cls-1" d="M390,198.17c6,9.58,11.39,19.11,15.08,30l-66.46,19.55C339.7,243.32,377.46,206.82,390,198.17Z"/><path class="cls-1" d="M373.66,130.66c6,9.57,11.39,19.11,15.08,30l-66.46,19.55C323.39,175.8,361.16,139.3,373.66,130.66Z"/><path class="cls-1" d="M355.42,63.78c6,9.58,11.4,19.11,15.09,30l-66.46,19.55C305.16,108.93,342.93,72.43,355.42,63.78Z"/><path class="cls-1" d="M267.33,126.8c6,9.58,11.39,19.11,15.08,30L216,176.38C217.07,172,254.83,135.45,267.33,126.8Z"/></svg>