<svg id="Vrstva_1" data-name="Vrstva 1" xmlns="http://www.w3.org/2000/svg" viewBox="0 0 500 500"><defs><style>.cls-1{fill:#28a397;}</style></defs><path class="cls-1" d="M166.12,247.16c10.45,27.3-8.41,54.1-24.72,73.94C137.58,294.83,143.69,263.33,166.12,247.16Z"/><path class="cls-1" d="M160.51,59.72c16.6,24.06,4.59,54.56-6.58,77.68C144,112.78,142.53,80.72,160.51,59.72Z"/><path class="cls-1" d="M200.42,438.34c-13.45-23.84.33-51.27,12.7-71.88C220.28,390.25,219,420.27,200.42,438.34Z"/><path class="cls-1" d="M63.11,289.44c-10.21-25.39,7-50.78,22-69.6C89.09,244.37,83.86,274,63.11,289.44Z"/><path class="cls-1" d="M286,342.85c4.31,25.39-16.88,45.22-34.25,59.7C252.92,379.13,263.91,353.2,286,342.85Z"/><path class="cls-1" d="M357.21,294.25c-16.52-19.11-8.83-46.51-1.62-67.48C366.47,247,370.43,274.37,357.21,294.25Z"/><path class="cls-1" d="M304.31,236c13.5,21.5,1.94,47.52-8.61,67.17C288,281.4,287.92,253.53,304.31,236Z"/><path class="cls-1" d="M197.89,315.78c-4.08,22.66-13.7,47.59-29.78,63.63C166.63,356.76,179.91,329.4,197.89,315.78Z"/><path class="cls-1" d="M341,321.4c-3.48,24-12.69,50.49-29,67.92C309.62,365.58,322.6,336.36,341,321.4Z"/><path class="cls-1" d="M300.6,155.24c-4.41,30.4-16.1,64-36.81,86.15C260.79,211.28,277.26,174.21,300.6,155.24Z"/><path class="cls-1" d="M213.67,211.48c3.91,21.84,3.88,45.51-8.56,64.7C195.54,257.26,201.32,226.07,213.67,211.48Z"/><path class="cls-1" d="M140.53,361.19c.89,22.17-2.36,45.61-17.3,62.92C116.33,404.07,126.31,374,140.53,361.19Z"/><path class="cls-1" d="M183.45,130.53c1,25.35-2.7,52.17-19.79,72C155.77,179.57,167.18,145.13,183.45,130.53Z"/><path class="cls-1" d="M260.88,275.89c-2.38,22.06-9,44.76-26.38,59.68C230.63,314.73,244.94,286.42,260.88,275.89Z"/><path class="cls-1" d="M251,124.6c-2.9,22-10.09,44.54-27.76,59.06C219.89,162.73,234.85,134.76,251,124.6Z"/><path class="cls-1" d="M135.39,189.7c.47,22.18-3.23,45.55-18.5,62.57C110.38,232.1,120.93,202.18,135.39,189.7Z"/><path class="cls-1" d="M117.49,303.86c-4.39,21.75-13.1,43.75-31.72,57C83.82,339.78,100.65,312.89,117.49,303.86Z"/><path class="cls-1" d="M228.43,52.11c.89,22.16-2.36,45.61-17.3,62.92C204.23,95,214.21,64.87,228.43,52.11Z"/><path class="cls-1" d="M301.86,78.89c-1.64,22.13-7.54,45.05-24.37,60.54C272.93,118.73,286.28,90,301.86,78.89Z"/><path class="cls-1" d="M120.37,124.72c-7.49,20.88-19.29,41.39-39.64,51.84C81.86,155.39,102.4,131.22,120.37,124.72Z"/><path class="cls-1" d="M356.34,141.57c.89,22.17-2.35,45.61-17.3,62.92C332.15,184.45,342.12,154.34,356.34,141.57Z"/></svg>